<?xml version="1.0" encoding="utf-8"?>
<svg viewBox="0 0 92 106" fill="none" xmlns="http://www.w3.org/2000/svg">
  <g transform="matrix(1, 0, 0, 1, -247.5, -142.994995)">
    <rect width="51.126" height="44.276" transform="matrix(0.866025, 0.5, 0, 1.154701, 249.501999, 170.559006)" stroke="#FF4438" stroke-width="0.8" stroke-linejoin="bevel"/>
    <rect width="51.126" height="44.276" transform="matrix(0.866025, -0.5, 0, 1.154701, 293.777008, 196.121002)" stroke="#FF4438" stroke-width="0.8" stroke-linejoin="bevel"/>
    <rect width="51.126" height="44.276" transform="matrix(0.866025, 0.5, 0, 1.154701, 249.503006, 170.559006)" fill="#FF4438" stroke="#091A23" stroke-width="0.8" stroke-linejoin="bevel"/>
    <rect width="51.126" height="44.276" transform="matrix(0.866025, -0.5, 0, 1.154701, 293.778015, 196.121994)" fill="#6B2B2B" stroke="#091A23" stroke-width="0.8" stroke-linejoin="bevel"/>
    <rect width="51.126" height="44.276" transform="matrix(0.866025, 0.5, -1, 0.57735, 293.779999, 144.994995)" fill="#FF4438" stroke="#FF4438" stroke-width="0.8" stroke-linejoin="bevel"/>
    <path fill-rule="evenodd" clip-rule="evenodd" d="M309.883 177.306L298.705 170.853L309.882 164.399L321.06 170.853L309.883 177.306Z" fill="white"/>
    <path fill-rule="evenodd" clip-rule="evenodd" d="M293.644 187.505L281.024 180.218L299.191 177.028L293.665 187.516L293.651 187.508L293.644 187.505Z" fill="white"/>
    <path fill-rule="evenodd" clip-rule="evenodd" d="M281.61 174.32C278.517 176.106 273.502 176.106 270.408 174.32C267.314 172.534 267.314 169.638 270.408 167.852C273.501 166.066 278.516 166.066 281.61 167.852C284.704 169.638 284.704 172.534 281.61 174.32Z" fill="white"/>
    <path d="M300.623 157.643C300.869 158.903 301.212 160.308 299.121 161.515C297.253 162.594 294.917 162.048 293.535 161.307C294.806 161.568 296.304 161.509 297.52 160.77C299.844 159.339 299.33 157.143 297.363 156.007C295.011 154.649 291.553 154.687 288.494 156.453C286.306 157.716 284.424 159.76 283.954 161.545C285.284 162.335 287.794 162.912 287.872 162.645C288.311 161.115 288.824 159.997 289.654 159.105C289.849 161.247 290.164 166.3 290.445 167.059C291.236 167.448 294.113 168.058 294.558 167.801C294.694 167.723 294.733 167.611 294.733 167.455C294.582 165.899 294.343 164.564 294.036 163.322C295.967 164.288 299.06 165.046 301.548 163.61C303.775 162.324 304.381 160.126 301.782 157.463C301.455 157.14 300.566 157.253 300.622 157.643L300.623 157.643ZM295.175 157.426C296.313 158.083 295.748 159.054 294.722 159.647C294.174 159.963 293.609 160.124 293.09 160.208C292.778 159.321 292.437 158.423 292.074 157.46C293.418 156.908 294.485 157.027 295.175 157.426L295.175 157.426Z" fill="white"/>
    <path d="M338.056 187.6L293.78 213.163L249.504 187.6" stroke="#FF4438" stroke-opacity="0.15" stroke-width="0.8" stroke-linejoin="bevel"/>
    <path d="M338.055 187.601L293.779 213.163L249.502 187.601" stroke="#091A23" stroke-width="0.8" stroke-linejoin="bevel"/>
    <rect width="51.126" height="44.276" transform="matrix(0.866025, 0.5, -1, 0.57735, 293.779999, 144.994995)" stroke="#091A23" stroke-width="0.8" stroke-linejoin="bevel"/>
    <path d="M338.052 204.642L293.776 230.204L249.5 204.642" stroke="#091A23" stroke-width="0.8" stroke-linejoin="bevel"/>
    <path d="M293.74 196.022L293.74 247.465" stroke="#091A23" stroke-width="0.8"/>
    <path d="M338.274 187.459L293.417 213.504" stroke="#091A23" stroke-width="0.8" stroke-linejoin="bevel"/>
    <path d="M338.243 170.452L293.421 196.361" stroke="#091A23" stroke-width="0.8" stroke-linejoin="bevel"/>
    <path d="M338.263 204.476L293.354 230.511" stroke="#091A23" stroke-width="0.8" stroke-linejoin="bevel"/>
  </g>
  <defs/>
</svg>