<?xml version="1.0" encoding="utf-8"?>
<svg xmlns="http://www.w3.org/2000/svg" viewBox="0 0 41 41" xmlns:bx="https://boxy-svg.com">
  <defs>
    <bx:export>
      <bx:file format="png" path="6357742542.png"/>
    </bx:export>
  </defs>
  <g transform="matrix(0.038134, 0, 0, 0.038134, 0.065411, 1.004453)" style="">
    <path d="m0 0v1024h215c3.882-44.52 28.074-92.369 52.333-129l22.946-33c2.996-4.291 7.014-9.528 4.628-14.981-4.141-9.462-15.789 0.832-22.907 0.718-11.035-0.177-20.571-7.322-27-15.737h-1c-5.755 7.553-13.507 16.665-23 19.363-24.065 6.838-55.747-21.175-72-35.363h-1c-4.778 4.777-13.838 16.288-21.576 15.635-4.617-0.39-9.392-6.632-12.424-9.635-9.028-8.941-18.332-17.244-26.561-27-32.057-38.009-56.671-86.813-60.35-137-5.9739-81.497 35.078-144.9 78.556-210 33.747-50.528 68.988-103.9 88.355-162-54.272-34.043-35.588-116.79 28-125-2.282-13.26-6.516-23.157-3.321-37 7.822-33.896 44.873-56.068 78.321-51.711 16.78 2.1858 25.243 10.843 39 18.711 2.613-7.8767 9.526-14.522 14.576-21 12.671-16.255 27.472-31.329 43.424-44.386 10.15-8.3071 23.736-15.464 32-25.614h-426z" fill="#fdfdfc"/>
    <path d="m336 91c-37.303-32.141-103.12-21.892-117.08 31-3.692 13.998-0.59 25.57 3.076 39-50.295 4.003-77.337 63.754-49.996 105 5.512 8.316 12.738 15.953 21.996 20-20.637 43.951-39.827 87.137-66.505 128-45.446 69.612-100.45 136.84-101.49 224-0.6832 57.427 24.224 112.01 59.801 156 8.2777 10.236 17.891 18.786 27.195 28 3.377 3.344 7.97 9.171 13 9.882 7.985 1.128 18.018-10.23 22-15.882h1c20.09 24.897 74.378 55.752 95 16h1c5.017 9.645 17.093 16.27 28 15.867 7.007-0.258 19.457-10.223 22.192 1.134 1.266 5.255-4.219 11.116-7.076 14.999-8.407 11.425-16.47 23.012-24.063 35-22.182 35.023-47.116 82.621-49.053 125h617v-1c-40.483-25.389-81.068-50.94-123-73.92-12.252-6.714-23.986-14.353-36-21.477-4.643-2.753-12.405-5.602-14.933-10.696-2.796-5.634 1.405-15.907 1.933-21.907 1.994-22.664 8.012-45.336 9-68 42.878 8.434 83.619 32.81 129 22.985 15.981-3.459 26.478-14.339 34.548-27.985 3.404-5.756 5.075-12.804 9.781-17.7 10.573-10.999 24.436-19.005 35.67-29.386 30.295-27.993 56.393-60.239 73.692-97.914 22.199-48.345 28.959-100.53 21.733-153-1.554-11.281-3.294-22.662-4.349-34-0.53-5.69-0.318-11.461-7.075-12 5.595-4.901 11.26-9.914 14-17-6.86 1.009-13.975 3.392-21 2.812-16.124-1.333-31.557-7.623-48-8.723-11.694-0.782-22.602 3.917-34 4.911 17.143-14.573 39.7-10.084 60-6.424 5.812 1.048 19.705 4.673 21.994-3.551 1.061-3.815-3.231-5.011-5.995-5.905-7.584-2.452-15.124-5.042-22.999-6.367-26.706-4.492-51.888 0.616-68.561 24.247-22.901 32.458-18.563 80.13-3.588 115 3.218 7.493 7.32 13.777 12.573 20 3.089 3.659 7.939 7.855 8.166 13 1.055 23.872-38.153 21.429-38.59 40 21.481 3.986 54.621-16.707 52.776-41-1.034-13.615-14.943-25.744-20.464-38-11.434-25.38-15.993-58.881-9.312-86h1c2.484 8.754 4.852 17.796 13.001 23.03 23.275 14.95 50.984-15.13 50.999-37.03 18.53 15.098-1.735 38.508-20 40 1.625 9.981 14.33 7.169 21 4.099 13.36-6.15 21.075-19.113 24-33.099h2c5.857 15.209 5.229 32.907 7.155 49 7.634 63.8-9.447 128.87-47.307 181-19.921 27.429-44.47 49.692-70.848 70.664-19.87 15.799-24.503 46.548-53 50.05-40.77 5.009-85.828-15.744-122-31.853-67.026-29.85-140.01-76.436-173.73-143.86-25.554-51.102-29.764-108.94-27.309-165 0.831-18.974 2.56-38.043 3.024-57 0.233-9.487-1.397-24.009 2.615-32.775 1.628-3.559 7.281-5.08 10.4-7.091 5.873-3.786 11.234-8.552 15.468-14.134 4.065-5.358 6.424-12.458 7.724-19 0.774-3.891 0.044-9.313 3.242-12.185 5.002-4.494 13.556-7.057 19.566-10.062 16.086-8.043 32.296-15.471 49-22.153 58.374-23.35 118.49-39.08 179-55.589 43.458-11.857 112.91-23.646 126-76.011 16.435 11.238 30.286 28.065 43.282 43 24.509 28.168 50.373 61.255 57.103 99 3.774 21.169 1.561 43.056-2.385 64-15.441-3.54-30.793-8.726-46-13.201-8.228-2.422-19.371-6.03-28-4.574-13.722 2.315-23.027 28.534-9.982 36.77 4.785 3.02 10.588 2.81 15.982 3.584 13.945 2.003 27.921 2.421 42 2.421 4.702 0 18.134-3.133 20.958 1.318 2.173 3.425-0.474 9.351-1.783 12.682-3.914 9.963-10.082 17.898-10.175 29 16.174-0.83 26.035-21.412 30.91-35 1.622-4.522 3.242-10.172 2.586-15-0.629-4.632-3.698-9.27-2.437-14 2.515-9.426 7.783-18.421 10.511-28 6.65-23.315 9.43-47.834 9.43-72 0-99.368-51.037-193.18-131-251.73-17.079-12.506-35.114-23.909-54-33.51-6.582-3.3462-13.836-8.4828-21-10.282-8.524-2.1415-19.228-0.4738-28-0.4738v1c21.588 12.464 43.135 36.319 56.694 57 23.35 35.612 54.637 80 29.969 123-17.817 31.057-58.369 38.464-89.663 47.861-34.089 10.236-68.964 17.587-103 28.165-44.264 13.755-87.189 31.06-131 45.974 17.881-15.201 44.294-22.115 66-30.053 46.345-16.95 94.695-33.116 143-43.437 32.406-6.924 75.543-15.394 99.829-39.681 4.997-4.996 9.338-11.4 12.271-17.829 4.208-9.224 9.602-27.564 3.891-36.995-4.034-6.662-12.87-9.386-19.991-11.27-17.889-4.734-36.746-4.525-55-2.569-59.573 6.382-121.06 27.137-175 52.615-25.136 11.873-48.436 28.575-74 39.219 6.2-8.424 16.128-13.778 25-18.989 17.036-10.007 34.847-19.063 53-26.861 73.142-31.416 155.9-59.281 236-49.15-6.685-38.821-61.883-46.642-94-42.424-54.986 7.2198-107.81 18.858-158 43.86-26.522 13.212-49.865 31.125-75 46.564 14.658-22.159 45.821-36.656 69-48.247 32.862-16.433 67.475-27.245 103-36.126 42.66-10.665 85.789-17.504 129-7.6265-9.867-33.532-46.217-43.01-77-43-64.584 0.0207-130.42 25.181-185 58-12.352 7.4267-24.339 15.687-36 24.152-6.878 4.993-13.733 11.416-22 13.848 3.415-7.263 11.7-12.399 18-17.127 14.768-11.081 29.81-21.287 46-30.178 53.497-29.38 112.88-48.42 174-52.605 15.688-1.0744 31.346 0.9105 47 0.9105-23.497-29.118-67.116-26.098-100-19.803-54.932 10.515-109.91 32.558-159 59.112-20.811 11.257-39.161 30.084-61 38.691 8.712-18.682 38.588-32.661 56-42.08 39.206-21.209 82.249-36.341 125-48.629 22.267-6.4001 46.656-14.226 70-14.291v-1c-29.275 0-60.986-3.4811-90 0.2894-22.982 2.9865-45.317 12.029-68 16.711v-1c18.454-4.2695 37.058-13.453 56-15v-1c-20.714 0-44.625-3.3477-65 0.2631-19.785 3.5062-43.395 17.524-61 27.046-16.485 8.9157-32.148 18.893-47 30.342-7.311 5.6362-13.193 13.691-23 12.349 4.838-9.9292 19.084-17.84 28-24.025 26.267-18.22 55.185-33.408 85-44.975-11.932-5.0068-33.009-1-46-1h-46c-6.71 0-15.576-1.5128-22 0.5641-6.858 2.2174-13.431 9.0179-19 13.433-12.921 10.244-25.317 20.32-37 32.003-10.963 10.964-31.882 29.332-35 45z" fill="#050606"/>
    <path d="m428 70c12.32 3.114 26.237-14.425 36-21.279 29.104-20.432 61.14-32.642 93-47.721-10.829-4.5442-22.332 2.3703-32 6.5756-25.301 11.006-49.33 24.007-72 39.768-7.677 5.3374-22.277 13.37-25 22.656m140-54v1c22.586-3.0414 44.271-14.143 67-16-6.949-2.9161-16.112 0.3357-23 2.2901-14.686 4.1673-29.478 7.9861-44 12.71m-93 90c9.887-2.726 17.842-9.9254 26-15.848 10.931-7.935 22.243-15.086 34-21.728 15.741-8.8928 32.404-16.452 49-23.575 61.035-26.196 153.18-67.327 211-16.85-15.981 0-31.976-2.0079-48-0.9105-61.117 4.1853-120.5 23.225-174 52.605-16.56 9.0946-31.905 19.586-47 30.932-5.732 4.308-13.971 9.203-16 16.373 8.723-1.574 16.002-8.767 23-13.848 12.301-8.93 24.965-17.53 38-25.352 52.713-31.63 109.91-50.152 171-55.97 35.983-3.4267 72.536 6.3288 88 42.17-23.448-7.4356-45.993-5.4945-70-3.1697-56.579 5.4789-114.19 22.454-165 47.923-16.557 8.3-33.129 17.816-48 28.877-6.913 5.141-14.399 10.291-18 18.37 26.334-11.362 49.202-32.81 75-46.052 48.529-24.911 103.02-38.981 157-44.118 34.615-3.2944 84.23 2.7912 95 42.17-48.862-9.104-97.99 3.169-145 16.573-34.638 9.875-69.679 21.061-102 37.18-16.237 8.098-32.416 15.877-48 25.247-6.784 4.079-15.428 8.67-19 16 10.315-2.971 19.752-9.841 29-15.15 15.305-8.785 30.952-17.173 47-24.541 54.086-24.835 114.51-45.77 174-52.143 18.334-1.964 37.124-2.029 55 3.131 7.66 2.211 16.763 5.732 19.991 13.703 2.361 5.83 0.534 15.051-0.89 21-1.23 5.141-2.972 10.372-5.54 15-3.36 6.053-7.457 12.031-12.6 16.711-26.152 23.795-66.634 31.161-99.961 39.034-46.751 11.045-94.075 24.993-139 42.063-16.048 6.097-32.541 11.419-48 18.934-6.893 3.351-15.019 6.247-20 12.258 20.789-4.938 40.988-14.489 61-21.95 30.521-11.378 61.674-21.687 93-30.629 40.269-11.494 83.032-18.562 122-34.022 11.993-4.758 24.115-10.238 34-18.699 48.51-41.522 8.908-106.85-20.289-146.7-5.82-7.9432-12.766-15.055-19.711-22-8.912-8.9124-17.795-18.007-28-25.482-6.042-4.4256-12.886-3.5185-20-3.5185-13.703 0-27.367-0.3424-41 0.9252-63.242 5.88-130.85 31.53-187 60.332-15.488 7.9443-29.919 17.291-44 27.488-6.052 4.3828-13.907 9.7964-16 17.255m332-106v1c34.08 17.871 68.216 36.171 97 62.17 72.845 65.795 119.92 165.61 106.13 264.83-2.41 17.365-5.82 34.275-11.159 51-1.859 5.822-5.906 11.099-7.294 17-1.349 5.739 2.993 11.197 2.71 17-0.794 16.296-15.832 45.239-33.387 47 0.241-11.304 7.353-19.681 10.921-30 1.1-3.184 3.46-9.325 1.05-12.397-3.012-3.839-16.457-0.603-20.971-0.603-16.171 0-41.347 2.293-55.999-5.442-15.055-7.948-6.16-34.928 8.999-37.33 7.875-1.247 18.485 2.359 26 4.571 15.213 4.477 31.336 10.896 47 13.201 15.773-64.024-13.718-116.88-54.718-164-11.882-13.656-26.566-34.343-43.282-42-21.19 58.317-95.344 67.178-147 81.151-54.552 14.757-108.45 30.213-161 51.249-16.03 6.417-31.563 13.635-47 21.353-5.851 2.925-13.47 5.357-18.566 9.46-5.655 4.552-5.069 21.731-9.567 28.787-4.195 6.581-10.428 12.17-16.867 16.481-2.894 1.937-7.883 3.407-9.973 6.217-5.53 7.438-2.505 26.368-3.117 35.302-2.315 33.819-3.755 67.118-2.925 101 1.249 50.943 12.483 102.14 41.373 145 36.797 54.589 100.93 92.423 159.64 119.31 30.759 14.084 64.889 28.279 99 30.78 10.567 0.774 21.61 2.203 32-0.874 21.567-6.386 27.525-34.345 44-47.755 24.578-20.005 47.764-40.086 67.116-65.46 38.248-50.15 58.796-115.99 52.05-179-1.837-17.158-0.114-41.639-8.166-57h-2c-4.063 14.013-11.184 26.739-25 33.099-6.887 3.17-17.286 5.067-20-4.099 16.553-0.721 41.919-28.177 20-40-0.056 20.309-24.569 48.312-47 38.633-10.73-4.631-13.233-14.795-17-24.633h-1c-8.295 26.23-1.681 63.547 9.782 88 5.382 11.482 18.604 23.212 19.802 36 2.282 24.355-31.968 43.592-52.584 41 0.56-10.776 7.014-9.626 15-13.324 9.391-4.348 24.086-14.971 23.799-26.676-0.269-10.943-16.429-23.477-20.948-34-15.746-36.664-19.949-88.653 9.239-120 17.851-19.17 39.485-22.223 63.91-17.917 4.859 0.857 30.607 5.915 26.958 12.873-4.084 7.788-18.456 2.87-24.958 1.654-16.727-3.129-43.546-7.641-56 7.389 16.231-0.742 30.312-5.499 47-3.829 20.438 2.044 35.096 9.608 56 4.829-3.781 6.572-9.332 11.205-14 17 6.633 1.083 6.546 7.318 7.075 13l4.77 37c6.672 55.727-2.225 109.86-28.103 160-14.622 28.329-34.673 54.867-57.823 76.789-14.435 13.67-31.617 24.693-45.59 38.675-4.769 4.771-6.405 11.827-9.781 17.536-8.842 14.951-20.8 26.766-38.548 29.561-27.623 4.35-57.655-2.584-84-10.78-13.353-4.154-27.102-10.977-41-12.781-1.854 22.702-6.924 45.264-9.075 68-0.594 6.277-4.587 15.817-2.307 21.907 2.451 6.544 14.741 10.872 20.382 14.296l56 32.998 66 38.859c10.019 6.15 21.697 17.33 33 20.44 17.467 4.81 41.854 0.5 60 0.5h131v-1024h-217m-241.33 17.333c-0.445 0.4445 0.611 0.3889 0.666 0.3334 0.445-0.4446-0.611-0.3891-0.666-0.3334m312.33 52.667c5.096 11.434 16.546 22.364 24.565 32 14.707 17.671 28.512 35.73 41.091 55 31.605 48.417 47.816 108.71 52.344 166h1c0-73.221-24.205-143.74-68.765-202-13.901-18.176-30.641-38.744-50.235-51m-539 55c-5.624-12.451-13.461-24.226-26-30.626-26.386-13.466-65.847-2.7566-75.226 27.626-6.862 22.229 5.975 42.045 17.226 60-22.274-1.018-41.191-9.764-59.985 8.09-19.73 18.742-18.983 53.309 1.024 71.726 10.095 9.291 22.674 12.184 35.961 12.184-2.282 8.057-11.936 10.497-17.999 15.379-8.887 7.156-14.702 18.302-15.83 29.621-2.758 27.665 22.713 58.434 51.829 53.675 17.95-2.934 30.727-16.402 43-28.675-0.362 7.907-4.776 14.408-6.486 22-3.312 14.708 0.311 30.016 9.645 41.911 20.125 25.645 64.801 21.982 84.512-1.911 11.984-14.526 13.647-36.128 10.329-54 11.169 9.921 17.238 23.808 33 28.073 31.27 8.458 63.664-25.67 64.961-55.073 0.594-13.468-6.445-21.817-9.961-34 14.069 0 28.3-3.372 38.961-13.184 18.287-16.833 18.418-46.068-1.961-61.206-11.165-8.294-24.72-8.61-38-8.61 15.481-12.85 31.928-25.636 31.921-48-9e-3 -30.063-36.6-49.908-61.921-34-3.263-39.947-48.858-62.323-83-41.536-15.751 9.5896-19.077 24.918-26 40.536m192 74c11.857-5.899 22.778-14.843 34-21.947 30.158-19.091 64.077-40.502 98-52.053-9.399-3.834-26.316 6.151-35 9.85-25.508 10.866-50.77 24.925-73 41.524-8.339 6.227-19.486 12.946-24 22.626z" fill="#fdfdfc"/>
    <path d="m372 147c-0.404 19.469-6.552 39.627-9 59-6.468-2.014-20.224 3.086-24.485-0.422-13.063-10.753-18.986-37.655-36.515-42.578 2.541 19.428 25.245 32.516 27 52-19.024-2.49-34.088-21.615-54-25 3.031 10.769 20.289 16.218 29 22.004 3.235 2.149 8.29 4.849 9.183 8.999 1.829 8.501-8.159 5.325-12.183 3.998-18.023-5.946-38.059-9.001-57-9.001v6c14.829 2.763 29.408 5.718 44 9.522 6.619 1.726 14.734 2.858 18 9.478-16.2 3.009-32.754 1.493-49 4.321-6.144 1.069-14.862 1.542-16 8.679 15.352-1.212 31.633-3.442 47-1.424 3.775 0.495 16.118-0.835 13.534 6.385-1.546 4.32-7.887 6.994-11.534 9.228-9.843 6.03-28.676 13.969-32 25.811 12.662-3.648 23.732-12.156 36-16.938 2.755-1.074 12.269-5.62 13.079 0.082 0.688 4.849-9.883 11.505-13.079 14.28-9.722 8.442-26.437 21.332-29 34.576 12.784-3.482 25.284-19.325 35-27.95 3.221-2.86 7.763-8.601 12-9.708 3.993-1.043 10.382 4.829 14 6.48 3.773 1.721 10.654 2.756 12.972 6.456 3.05 4.867 0.668 14.157 1.198 19.722 1.406 14.764 5.354 28.61 7.83 43h3c0-22.001 0.229-43.188 3-65 16.125-1.271 17.934 16.199 24 29 7.217-2.656 3.64-9.224 2.231-15-2.618-10.739-4.599-19.572 8.769-23.802 4.7-1.488 9.402 3.392 13 5.801 8.974 6.009 20.014 15.876 31 17.001-2.579-9.916-14.268-16.483-21.985-22.37-3.439-2.623-9.898-6.509-8.968-11.631 1.387-7.633 8.72-8.403 14.953-7.575l28 3.732c3.029 0.377 7.719 2.369 10.663 1.152 7.132-2.948-12.894-8.678-14.663-9.157l-13-3.162c-6.654-1.823-13.048-3.846-20-3.989v-10c17.076-1.348 33.947-4.654 51-6-0.471-8.495-7.123-7.36-14-6.424-12.762 1.738-26.13 4.158-39 4.424-0.979-5.487-4.013-9.422-7-14 12.131-5.739 23.596-15.391 34-23.805 4.819-3.897 10.278-8.06 12-14.195-19.66 2.014-35.938 23.968-55 30 1.948-12.995 11.429-26.449 17.465-38 3.174-6.076 7.507-12.948 6.535-20-11.389 5.818-19.358 25.43-26.053 36-2.054 3.242-6.197 12.027-10.932 11.369-7.011-0.975-4.282-11.068-3.605-15.369 1.749-11.111 2.929-22.772 3.555-34 0.325-5.851 2.346-11.158-4.965-12z" fill="#050606"/>
    <path d="m360.33 220.67c-0.055 0.055-0.111 1.111 0.334 0.666 0.055-0.055 0.111-1.111-0.334-0.666m5.667 0.333v4l-6-2c0 7.206-1.497 15.137-1 22 1.081-1.458 1.436-2.248 2-4h2l2 6c-1.92 1.297-2.316 1.791-3 4-2.59-2.034-4.969-3.724-8-5 0.814 5.573 4.621 11.916 10 14-0.777-2.489-1.817-4.672-3-7 3.129-1.806 4.523-3.715 6-7h1c0.232 4.748-3.428 9.879 3 11 0.062-7.444-3.144-15.358-1-22l-1-1c-2.513 1.106-4.677 2.523-7 4-0.27-5.803 1.425-8.468 6-12 0.176 1.878 0.438 3.2 1 5h1c0.986-4.114-0.553-7.538-4-10m-21 8h1l5-6c-4.159 0.469-6.672 1.506-6 6m11-6-1 4-5-1v5c2.297-0.674 2.774-0.965 4-3 3.674 0.063 4.439-1.472 5-5h-3m18 2c0.526 2.543 0.878 3.535 3 5-0.176-1.878-0.438-3.199-1-5h-2m-39 3c1.082 4.962 4.365 5.396 9 6l1-4c-3.867 0.44-6.428-0.633-10-2m39 4v4h1l1-4h-2m6 1c-1.463 3.439-3.035 6.219-3 10h2c1.193-3.541 3.062-6.649 1-10m-47 1c0.825 2.455 1.829 4.688 3 7h2c0.731-4.118-1.229-5.675-5-7m15 0c-1.408 3.209-1.357 5.539-1 9 5.632-0.063 11.28-1.2 10-8h-2c-1.249 1.917-2.36 3.428-4 5l-1-6h-2m23 3v2h2v-2h-2m-47 4c1.58-0.684 1.777-0.805 3-2-2.092 0.406-2.02 0.217-3 2m5-2c-0.593 4.052 0.948 5.593 5 5-1.409-2.564-2.403-3.67-5-5m52 0c0.176 1.878 0.438 3.199 1 5-3.364 3.388-1.155 9.405 1 13h1l-1-8 6 3c-0.978-3.464-2.474-4.482-6-5 0.674-2.297 0.965-2.774 3-4l-1-4h-4m-38 2c-6.791 10.19 11.288 8.955 0 0m-21 1v2h2v-2h-2m2 3c-1.098 2.694-1.495 4.156-1 7 2.701-1.166 4.115-1.507 7-1l1-4-7-2m26 2 1 4h1v-4h-2m25 1-1 4c1.87-1.229 2.223-1.868 3-4h-2m-41 3c-2.272 4.821-5.826 7.778-10 11l3 6c1.608-1.45 2.064-2.051 3-4-1.479-0.986-1.203-1-3-1v-1c3.176-0.503 4.331-1.255 6-4 5.906 3.075 3.667-4.446 1-7m8 1v4c2.428-0.262 4.572-0.262 7 0 0.817-5.324-3.012-4.079-7-4m-18 6c2.687-1.324 3.676-2.313 5-5-3.127 0.934-4.066 1.873-5 5m30-5-1 4 4 1c-0.526-2.543-0.878-3.535-3-5m23 2c-2.129 2.278-3.701 4.181-5 7 1.878-0.176 3.199-0.438 5-1 1.628 3.738 2.894 5.558-1 8-0.094-2.205-0.356-3.894-1-6-2.424 0.195-4.648 0.41-7 1 2.856 4.356 8.321 6.887 13 9 2.002-7.664-1.577-10.914-4-18m11 2 1 1-1-1m-38 1c0.684 1.58 0.805 1.777 2 3v-3h-2m-10 1v4h1l1-4h-2m45 1c0.777 2.132 1.13 2.771 3 4v-4h-3m-40 1v3h3v-3h-3m7 1c-0.562 1.801-0.824 3.122-1 5h3c-0.303-2.294-0.579-3.212-2-5m7 0c-1.193 2.68-2.35 5.14-3 8h5c0.034-2.735 0.361-5.3 0-8h-2m-27 1c-0.489 2.585-0.187 3.635 1 6-3.15 1.948-3.609 3.369-3 7h2c1.799-3.598 2.832-9.792 6-9-0.704-3.3-2.861-3.391-6-4m9 2c1.226 2.035 1.703 2.326 4 3-0.578-2.697-1.261-2.789-4-3m22 0v3h2v-3h-2m-24 3-1 4c2.698-0.578 2.789-1.261 3-4h-2m8 4-1 5c-4.798-0.834-7.68-0.597-10 4 2.609-0.659 4.64-1.687 7-3 0.176 1.878 0.438 3.199 1 5h1c0.34-2.018 0.323-2.967 0-5 2.719-1.573 3.373-2.925 4-6h-2m25 0c-1.793 3.035-3.114 2.83-6 1l-1 4c4.454 1.795 7.429 0.296 12 0-0.934-2.823-2.293-3.811-5-5m-37 1c0 1.797 0.014 1.521 1 3h1c0.986-1.479 1-1.203 1-3h-3m26 0c-2.675 3.148-4.739 6.05-6 10 4.025-1.894 8.459-5.317 6-10m-9 1v4h3v-4h-3m-17.667 3.667c-0.055 0.055-0.111 1.111 0.334 0.666 0.055-0.055 0.111-1.111-0.334-0.666m28.667-0.667c-0.895 2.042-1.536 3.828-2 6 2.555-1.65 3.098-3.12 2-6m-14 2-1 4 4-1v-2l-1-1h-2z" fill="#fdfdfc"/>
    <path d="m580 400c26.07-5.056 52.409-8.125 79-6.961 22.696 0.994 45.25 5.851 68 5.96 18.769 0.091 43.55 2.026 38.671-24.999-3.768-20.866-33.268-13.59-47.671-11.95-34.632 3.944-70.979 2.883-104 15.003-11.626 4.267-28.477 11.113-34 22.947z" fill="#050606"/>
    <path d="m197 375c-12.915 22.106-24.265 45.014-37.449 67-34.509 57.547-78.715 118.12-85.381 187-2.1553 22.272 0.5712 45.34 5.5949 67 3.8475 16.589 8.5888 33.186 17.235 48h1c-2.8465-16.746-8.1009-33.141-10.704-50-5.017-32.496-2.7198-66.153 5.0432-98 19.552-80.21 81.28-143.13 106.66-221h-2m37 17c-15.668 29.39-28.463 61.557-42.075 92-8.09 18.093-20.561 39.463-23.925 59h1c19.336-36.75 37.831-72.102 52.742-111 3.601-9.394 15.653-30.214 12.258-40m139 54-14 5c3.749 22.141 14.184 52.887 32.004 67.671 12.96 10.752 25.883-10.285 32.448 8.329 6.007 17.031 1.548 42.024 1.548 60 0 55.484-2.965 112.9-20.667 166-6.312 18.934-18.864 56.589-41.333 61.606-7.913 1.768-14.553-3.283-22-4.606-5.113 12.467-8.726 25.433-15.811 37-1.778 2.904-7.485 8.905-3.816 12.142 7.038 6.21 24.705-0.047 32.627-1.531 21.096-3.953 42.316-1.731 63 3.675 84.989 22.215 162.77 64.79 245 94.714-4.509-7.847-14.57-13.573-21-20-14.888-14.882-29.592-30.018-42.116-47-22.854-30.99-41.597-64.546-56.6-100-6.45-15.241-9.197-34.945-17.509-48.961-6.575-11.087-20.006-19.891-28.312-30.039-20.318-24.823-36.937-54.307-46.438-85-21.532-69.563-10.489-140.08-9.025-211-12.325 1.558-23.879 0.611-32-10-7.335 2.227-5.493 13.625-6.286 20-0.789 6.34-2.463 12.566-1.388 19 1.853 11.096 9.669 20.621 13.608 31 1.583 4.17 5.857 14.811 0.632 18.033-5.013 3.092-15.947-8.354-19.566-11.153-4.279-3.308-8.895-6.62-12.239-10.919-5.395-6.935-8.795-15.463-10.761-23.961m-100-38c-31.659 97.133-73.954 197.45-48.525 301 8.571 34.907 26.854 72.712 54.525 96.421 6.46 5.535 29.771 26.273 38 13.579-12.672-0.58-22.624-9.777-30.41-19-15.935-18.878-26.676-40.041-35.398-63-27.935-73.535-13.871-153.39 0.809-228 4.94-25.107 11.875-49.883 16.423-75 1.34-7.4 6.788-18.786 4.576-26z" fill="#fdfdfc"/>
    <path d="m571 459c9.053 1.868 26.24 0.869 33.721 5.988 3.661 2.506 4.308 9.116 5.883 13.012 2.925 7.235 6.961 13.028 13.397 17.56 15.753 11.093 39.127 6.636 49.894-9.56 5.804-8.731 7.077-19.741 7.105-30 4.598 1.193 10.109 1.81 13.581 5.394 7.534 7.775 0.628 24.085-5.686 30.513-8.01 8.153-18.568 9.954-28.895 13.093 3.553 10.111 18.458 5.942 26 2.663 16.731-7.274 23.988-22.163 24-39.663 6.463 4.894 11.954 13.461 21 11-2.089-6.025-7.413-10.117-10-16 2.898-1.352 14.759-9.985 10.339-13.971-3.175-2.864-15.04 0.12-19.339-0.068-11.798-0.518-35.993-3.093-45-10.961 14.712 0 29.255 2.001 44 2 7.782 0 15.23-0.111 19-8-41.068-13.018-85.419-11.453-125 5.284-10.053 4.251-33.294 8.92-34 21.716z" fill="#050606"/>
    <path d="m629.06 446.05c-6.372 3.216-2.415 9.72 3.793 6.228 5.017-2.821 0.958-8.626-3.793-6.228m-275.06 92.953c0 21.906-2.415 44.037-0.91 66 4.175 60.969 14.91 120.66 14.91 182 6.146-3.488 7.66-12.438 8.035-19 0.83-14.477 0.54-28.544-1.19-43-7.44-62.169-18.845-123.16-18.845-186h-2m27 0c0.271 32.706 4.333 70.164 12 102h1c0-24.951-1.138-49.345-5.247-74-1.403-8.417-2.235-21.291-7.753-28m-66 1c-12.889 49.816-10.595 96.476-5.166 147 3.528 32.835 8.925 65.579 19.166 97h2c5.319-16.779 2.348-38.76 0.285-56-4.34-36.272-13.644-72.437-15.246-109-0.799-18.26-0.039-36.721-0.039-55 0-7.216 1.802-17.322-1-24m-167 44c-3.072 23.611-15.561 45.82-18.711 70-6.495 49.859 10.318 104.62 45.426 140.83 15.659 16.152 30.909 30.17 54.285 30.17-3.938-5.248-13.6-7.349-19-11.529-10.701-8.283-20.642-19.547-28.575-30.471-29.862-41.124-43.804-93.347-40.335-144 1.279-18.685 7.078-36.618 8.91-55h-2z" fill="#fdfdfc"/>
    <path d="m786 632c-9.867-1.964-18.491-13.592-11.566-22.996 4.979-6.762 12.428-8.673 19.507-12.248 2.653-1.339 5.756-5.095 2.455-7.728-4.72-3.764-15.817 0.038-20.396 2.349-14.425 7.283-23.84 27.658-12.177 41.53 8.909 10.595 26.408 12.329 39.177 10.172 10.018-1.691 18.837-8.481 8.815-17.739-7.559-6.982-28.968-8.081-25.815 6.66m32 41c-25.456-9.488-53.886 10.978-79 15.385-4.789 0.84-11.327 1.548-15.961-0.278-3.034-1.195-5.556-5.422-9.05-5.07-4.971 0.501-8.46 7.93-9.989 11.963 36.073 10.766 76.074 34.254 115 25.486 11.36-2.559 17.122-12.095 27-16.486 1.051 12.623-13.833 19.376-24 22.641-31.78 10.205-57.892-12.265-88-13.641 4.146 11.304 14.719 18.77 25 24.218 26.53 14.06 64.79 12.275 87.961-7.682 9.705-8.359 12.961-18.809 16.341-30.521 1.273-4.408 5.419-5.106 7.952-8.405 3.045-3.967 0.661-10.653-1.254-14.61-4.343 2.116-7.621 8.395-13 7.522-10.097-1.637-29.447-27.548-39-10.522z" fill="#050606"/>
    <path d="m760 692c4.983 3.405 13.107 2.998 19 3 13.718 5e-3 27.346 0.183 41-0.914 3.892-0.313 17.418-0.032 17.248-6.035-0.186-6.593-14.437-3.786-18.248-3.337-19.583 2.311-40.096 0.194-59 7.286z" fill="#fdfdfc"/>
  </g>
</svg>