<?xml version="1.0" encoding="utf-8"?>
<svg xmlns="http://www.w3.org/2000/svg" viewBox="0 0 115 36" width="115px" height="36px" xmlns:bx="https://boxy-svg.com">
  <defs>
    <bx:export>
      <bx:file format="png" path="logo_rc_lite.png"/>
    </bx:export>
  </defs>
  <g style="pointer-events: none; visibility: hidden;">
    <title>Dark</title>
    <rect width="115" height="36" style="fill: rgb(34, 36, 43); pointer-events: none; visibility: hidden;"/>
    <path fill-rule="evenodd" clip-rule="evenodd" d="M 86.09 -8.729 C 88.435 -11.624 85.825 -4.673 83.972 -1.716 C 81.941 1.54 79.203 3.508 75.941 3.508 C 71.233 3.508 69.549 -0.679 69.304 -4.103 C 67.559 -1.767 65.598 0.657 63.191 3.361 C 62.935 3.618 62.715 3.764 62.459 3.764 C 61.616 3.764 59.894 0.027 59.784 -1.365 C 60.507 -2.487 65.065 -7.495 68.735 -11.527 C 70.025 -12.944 71.205 -14.241 72.07 -15.206 C 69.823 -14.528 67.506 -13.175 64.584 -11.074 C 64.071 -10.708 62.642 -14.042 62.678 -16.607 C 66.049 -19.098 71.178 -20.673 75.319 -20.673 C 81.107 -20.673 84.441 -17.449 84.441 -12.979 C 84.441 -9.242 81.327 -5.139 76.784 -4.992 C 74.422 -4.931 72.908 -6.257 72.133 -7.894 C 72.226 -5.362 73.543 -2.244 77.077 -2.244 C 80.93 -2.244 82.781 -4.57 85.54 -8.039 C 85.719 -8.265 85.902 -8.495 86.09 -8.729 Z M 75.978 -9.499 C 77.92 -9.499 80.045 -10.561 80.045 -12.723 C 80.045 -14.035 79.231 -15.244 77.055 -15.612 C 76.94 -15.433 76.826 -15.255 76.713 -15.078 C 75.607 -13.349 74.564 -11.719 73.512 -10.125 C 74.143 -9.771 74.94 -9.499 75.978 -9.499 Z" fill="#FF4438" style="pointer-events: none; visibility: hidden;">
      <title>R_red</title>
    </path>
    <ellipse style="fill: rgb(255, 68, 56); pointer-events: none;" cx="20.341" cy="17.366" rx="15.551" ry="15.551"/>
    <path fill-rule="evenodd" clip-rule="evenodd" d="M 30.853 17.139 C 32.795 14.741 30.633 20.499 29.098 22.949 C 27.416 25.646 25.147 27.276 22.445 27.276 C 18.545 27.276 17.15 23.808 16.947 20.971 C 15.501 22.906 13.877 24.915 11.882 27.155 C 11.67 27.368 11.488 27.488 11.276 27.488 C 10.578 27.488 9.151 24.393 9.06 23.239 C 9.659 22.31 13.435 18.161 16.475 14.821 C 17.544 13.647 18.522 12.572 19.238 11.773 C 17.377 12.335 15.457 13.456 13.036 15.196 C 12.611 15.499 11.428 12.737 11.457 10.612 C 14.25 8.549 18.499 7.244 21.93 7.244 C 26.725 7.244 29.487 9.915 29.487 13.618 C 29.487 16.714 26.907 20.113 23.143 20.235 C 21.187 20.285 19.932 19.187 19.29 17.831 C 19.367 19.928 20.458 22.511 23.386 22.511 C 26.578 22.511 28.112 20.584 30.397 17.71 C 30.545 17.523 30.697 17.333 30.853 17.139 Z M 22.476 16.501 C 24.084 16.501 25.845 15.621 25.845 13.83 C 25.845 12.743 25.171 11.742 23.368 11.437 C 23.273 11.585 23.178 11.732 23.085 11.879 C 22.168 13.311 21.304 14.662 20.433 15.982 C 20.955 16.276 21.616 16.501 22.476 16.501 Z" style="fill: rgb(255, 255, 255); pointer-events: none;">
      <title>R_white</title>
    </path>
    <text style="font-family: &quot;Space Grotesk&quot;; font-size: 14px; font-weight: 700; white-space: pre;" transform="matrix(1.040224, 0, 0, 1.409777, -2.984908, -7.260246)" x="40.278" y="23.023">RedisCard</text>
    <text style="fill: rgb(51, 51, 51); font-family: &quot;Space Grotesk&quot;; font-size: 14px; font-weight: 700; pointer-events: none; stroke: rgb(0, 0, 0); stroke-width: 0.0816326px; white-space: pre;" transform="matrix(1.040224, 0, 0, 1.409777, -3.255552, -7.66598)"><tspan x="40.278" y="23.023" style="fill: rgb(255, 68, 56);">Redis</tspan><tspan style="fill: rgb(255, 255, 255);">Card</tspan></text>
  </g>
  <g style="pointer-events: none;">
    <title>Lite</title>
    <ellipse style="fill: rgb(255, 68, 56); pointer-events: none;" cx="20.341" cy="17.366" rx="15.551" ry="15.551"/>
    <path fill-rule="evenodd" clip-rule="evenodd" d="M 30.853 17.139 C 32.795 14.741 30.633 20.499 29.098 22.949 C 27.416 25.646 25.147 27.276 22.445 27.276 C 18.545 27.276 17.15 23.808 16.947 20.971 C 15.501 22.906 13.877 24.915 11.882 27.155 C 11.67 27.368 11.488 27.488 11.276 27.488 C 10.578 27.488 9.151 24.393 9.06 23.239 C 9.659 22.31 13.435 18.161 16.475 14.821 C 17.544 13.647 18.522 12.572 19.238 11.773 C 17.377 12.335 15.457 13.456 13.036 15.196 C 12.611 15.499 11.428 12.737 11.457 10.612 C 14.25 8.549 18.499 7.244 21.93 7.244 C 26.725 7.244 29.487 9.915 29.487 13.618 C 29.487 16.714 26.907 20.113 23.143 20.235 C 21.187 20.285 19.932 19.187 19.29 17.831 C 19.367 19.928 20.458 22.511 23.386 22.511 C 26.578 22.511 28.112 20.584 30.397 17.71 C 30.545 17.523 30.697 17.333 30.853 17.139 Z M 22.476 16.501 C 24.084 16.501 25.845 15.621 25.845 13.83 C 25.845 12.743 25.171 11.742 23.368 11.437 C 23.273 11.585 23.178 11.732 23.085 11.879 C 22.168 13.311 21.304 14.662 20.433 15.982 C 20.955 16.276 21.616 16.501 22.476 16.501 Z" style="fill: rgb(255, 255, 255); pointer-events: none;">
      <title>R_white</title>
    </path>
    <text style="font-family: &quot;Space Grotesk&quot;; font-size: 14px; font-weight: 700; white-space: pre;" transform="matrix(1.040224, 0, 0, 1.409777, -2.984908, -7.260246)"><tspan x="40.278" y="23.023">Redis</tspan><tspan style="fill: rgb(213, 213, 213);">Card</tspan></text>
    <text style="fill: rgb(51, 51, 51); font-family: &quot;Space Grotesk&quot;; font-size: 14px; font-weight: 700; stroke: rgb(0, 0, 0); stroke-width: 0.0816326px; white-space: pre; pointer-events: none;" transform="matrix(1.040224, 0, 0, 1.409777, -3.255552, -7.66598)"><tspan x="40.278" y="23.023" style="fill: rgb(255, 68, 56);">Redis</tspan><tspan style="fill: rgb(26, 28, 35);">Card</tspan></text>
  </g>
</svg>