<?xml version="1.0" encoding="utf-8"?>
<svg xmlns="http://www.w3.org/2000/svg" viewBox="0 0 36 36" width="36px" height="36px" xmlns:bx="https://boxy-svg.com">
  <defs>
    <bx:export>
      <bx:file format="png" path="logo_rc-icon.png"/>
    </bx:export>
  </defs>
  <g transform="matrix(1, 0, 0, 1, -7.950999, 22.661999)">
    <title>R</title>
    <ellipse style="fill: rgb(255, 68, 56);" cx="25.951" cy="-4.662" rx="15.551" ry="15.551"/>
    <path fill-rule="evenodd" clip-rule="evenodd" d="M 36.463 -4.889 C 38.405 -7.287 36.243 -1.529 34.708 0.921 C 33.026 3.618 30.757 5.248 28.055 5.248 C 24.155 5.248 22.76 1.78 22.557 -1.057 C 21.111 0.878 19.487 2.887 17.492 5.127 C 17.28 5.34 17.098 5.46 16.886 5.46 C 16.188 5.46 14.761 2.365 14.67 1.211 C 15.269 0.282 19.045 -3.867 22.085 -7.207 C 23.154 -8.381 24.132 -9.456 24.848 -10.255 C 22.987 -9.693 21.067 -8.572 18.646 -6.832 C 18.221 -6.529 17.038 -9.291 17.067 -11.416 C 19.86 -13.479 24.109 -14.784 27.54 -14.784 C 32.335 -14.784 35.097 -12.113 35.097 -8.41 C 35.097 -5.314 32.517 -1.915 28.753 -1.793 C 26.797 -1.743 25.542 -2.841 24.9 -4.197 C 24.977 -2.1 26.068 0.483 28.996 0.483 C 32.188 0.483 33.722 -1.444 36.007 -4.318 C 36.155 -4.505 36.307 -4.695 36.463 -4.889 Z M 28.086 -5.527 C 29.694 -5.527 31.455 -6.407 31.455 -8.198 C 31.455 -9.285 30.781 -10.286 28.978 -10.591 C 28.883 -10.443 28.788 -10.296 28.695 -10.149 C 27.778 -8.717 26.914 -7.366 26.043 -6.046 C 26.565 -5.752 27.226 -5.527 28.086 -5.527 Z" style="fill: rgb(255, 255, 255);">
      <title>R_white</title>
    </path>
  </g>
</svg>